<?xml version="1.0" encoding="UTF-8" standalone="no"?>
<!-- Created with Inkscape (http://www.inkscape.org/) -->

<svg
   width="258.87125mm"
   height="242.57939mm"
   viewBox="0 0 258.87125 242.57939"
   version="1.1"
   id="svg1"
   xml:space="preserve"
   inkscape:version="1.3.2 (091e20e, 2023-11-25, custom)"
   sodipodi:docname="ggi_mini_logo.svg"
   xmlns:inkscape="http://www.inkscape.org/namespaces/inkscape"
   xmlns:sodipodi="http://sodipodi.sourceforge.net/DTD/sodipodi-0.dtd"
   xmlns="http://www.w3.org/2000/svg"
   xmlns:svg="http://www.w3.org/2000/svg"><sodipodi:namedview
     id="namedview1"
     pagecolor="#828282"
     bordercolor="#000000"
     borderopacity="0.25"
     inkscape:showpageshadow="2"
     inkscape:pageopacity="0.0"
     inkscape:pagecheckerboard="0"
     inkscape:deskcolor="#d1d1d1"
     inkscape:document-units="mm"
     inkscape:zoom="0.97904742"
     inkscape:cx="522.9573"
     inkscape:cy="486.69757"
     inkscape:window-width="2560"
     inkscape:window-height="1334"
     inkscape:window-x="-11"
     inkscape:window-y="-11"
     inkscape:window-maximized="1"
     inkscape:current-layer="layer1" /><defs
     id="defs1"><clipPath
       clipPathUnits="userSpaceOnUse"
       id="clipPath51"><path
         d="M 0,341.291 H 612 V 0 H 0 Z"
         transform="translate(-293.0713,-27.041098)"
         id="path51" /></clipPath><clipPath
       clipPathUnits="userSpaceOnUse"
       id="clipPath7"><path
         d="M 0,341.291 H 612 V 0 H 0 Z"
         transform="translate(-293.0713,-27.041098)"
         id="path7" /></clipPath></defs><g
     inkscape:label="Layer 1"
     inkscape:groupmode="layer"
     id="layer1"
     transform="translate(34.695953,-10.404729)"
     style="display:inline"><path
       id="path6"
       d="m 208.53343,0 c 80.979,0 -65.68134,0 15.29866,0.001 0.969,0 21.04891,-0.035 22.01591,0.014 8.439,0.424 15.157,7.29 15.158,15.62 0.015,86.796 0.031,173.592 -0.092,260.387 -0.004,2.747 -1.012,5.772 -2.399,8.18 -3.365,5.842 -8.957,7.646 -15.479,7.644 -132.97,-0.037 -57.40557,-0.028 -190.375575,-0.028 -0.528,0 -1.058,0.013 -1.585,-0.008 -8.092,-0.331 -13.294,-4.212 -15.89,-11.901 -3.956,-11.721 -7.898,-23.446 -11.83,-35.175 -18.2729999,-54.507 -36.541,-109.016 -54.809,-163.524 -6.666,-19.89 -13.319,-39.783 -20.007,-59.665 -1.094,-3.256 -1.427,-6.515 -0.475,-9.84 2.126,-7.422 8.045,-11.701 16.207,-11.702 C 45.692425,-0.001 127.11243,0 208.53343,0"
       style="display:inline;fill:#ff7800;fill-opacity:1;fill-rule:nonzero;stroke:none"
       transform="matrix(0.74958586,0,0,-0.74958586,16.608228,241.06729)"
       clip-path="url(#clipPath7)"
       sodipodi:nodetypes="cscccscscccscccc"
       inkscape:label="Color"
       sodipodi:insensitive="true" /><path
       id="path1"
       d="m 208.53343,0 c 80.979,0 -65.68134,0 15.29866,0.001 0.969,0 21.04891,-0.035 22.01591,0.014 8.439,0.424 15.157,7.29 15.158,15.62 0.015,86.796 0.031,173.592 -0.092,260.387 -0.004,2.747 -1.012,5.772 -2.399,8.18 -3.365,5.842 -8.957,7.646 -15.479,7.644 -132.97,-0.037 -57.40557,-0.028 -190.375575,-0.028 -0.528,0 -1.058,0.013 -1.585,-0.008 -8.092,-0.331 -13.294,-4.212 -15.89,-11.901 -3.956,-11.721 -7.898,-23.446 -11.83,-35.175 -18.2729999,-54.507 -36.541,-109.016 -54.809,-163.524 -6.666,-19.89 -13.319,-39.783 -20.007,-59.665 -1.094,-3.256 -1.427,-6.515 -0.475,-9.84 2.126,-7.422 8.045,-11.701 16.207,-11.702 C 45.692425,-0.001 127.11243,0 208.53343,0 m -0.189,-15.896 c -81.412,0 -162.824005,0 -244.235005,0.001 -16.184,10e-4 -28.701,10.088 -31.968,25.938 -1.119,5.432 -0.584,10.819 1.194,16.115 21.641,64.481 43.25,128.973 64.8730001,193.46 7.251,21.626 14.5259999,43.244 21.7809999,64.869 5.056,15.07 16.242,23.209 32.117,23.219 40.794,0.024 81.588005,0.008 122.382005,0.008 92.425,0 -23.68343,-0.006 68.74057,0.006 13.933,0.002 24.407,-5.75 30.714,-18.391 2.11,-4.229 2.967,-8.782 2.966,-13.529 -0.017,-86.61 -0.013,-173.22 -0.013,-259.83 0,-17.81 -13.99,-31.856 -31.793,-31.86 -66.257,-0.013 76.01943,-0.006 9.76143,-0.006 z"
       style="display:inline;fill:#ffffff;fill-opacity:1;fill-rule:nonzero;stroke:none"
       transform="matrix(0.74958586,0,0,-0.74958586,16.608228,241.06729)"
       clip-path="url(#clipPath7)"
       sodipodi:nodetypes="cscccscscccsccccsccccccscscscss"
       inkscape:label="Outline"
       sodipodi:insensitive="true" /></g></svg>
